<?xml version="1.0" standalone="no"?>
<!DOCTYPE svg PUBLIC "-//W3C//DTD SVG 20010904//EN"
 "http://www.w3.org/TR/2001/REC-SVG-20010904/DTD/svg10.dtd">
<svg version="1.0" xmlns="http://www.w3.org/2000/svg"
 width="500.000000pt" height="500.000000pt" viewBox="0 0 500.000000 500.000000"
 preserveAspectRatio="xMidYMid meet">
<metadata>
Created by potrace 1.14, written by Peter Selinger 2001-2017
</metadata>
<g transform="translate(0.000000,500.000000) scale(0.100000,-0.100000)"
fill="#000000" stroke="none">
<path d="M3600 4381 c-118 -32 -296 -80 -395 -105 -99 -26 -246 -65 -327 -87
-81 -22 -155 -42 -165 -44 -17 -3 -92 -24 -228 -61 -33 -9 -67 -17 -75 -19 -8
-2 -76 -20 -150 -39 -74 -20 -193 -51 -265 -70 -71 -19 -267 -71 -435 -116
-168 -44 -312 -83 -320 -85 -8 -2 -27 -6 -42 -10 l-28 -7 0 -503 c0 -424 2
-504 14 -514 13 -11 196 -61 711 -196 189 -49 227 -60 358 -95 64 -17 125 -33
135 -35 9 -1 42 -10 73 -19 31 -9 65 -19 75 -21 11 -3 44 -11 74 -19 479 -125
590 -156 557 -156 -7 0 -263 -66 -557 -145 -312 -82 -405 -107 -420 -110 -8
-2 -84 -22 -169 -45 -84 -23 -162 -44 -172 -46 -28 -6 -26 -5 -366 -96 l-313
-82 0 -517 0 -516 67 18 c82 21 562 149 583 154 24 6 266 70 495 131 116 30
275 72 355 93 196 52 371 98 645 171 127 34 294 78 373 98 l142 36 0 502 c0
429 -2 503 -15 514 -12 10 -122 43 -235 70 -19 4 -71 18 -115 30 -78 21 -635
168 -665 176 -8 2 -67 17 -130 34 -63 17 -122 32 -130 34 -8 2 -103 27 -210
55 -107 29 -202 54 -210 56 -233 59 -323 85 -297 85 8 0 251 62 349 90 43 11
87 23 99 25 12 2 47 12 78 21 31 9 63 18 71 19 16 4 233 61 434 115 66 17 127
33 135 36 9 2 66 16 126 33 61 16 164 43 230 61 66 17 143 38 172 46 29 8 62
17 75 20 13 2 70 16 128 32 l105 28 3 517 c1 284 -1 517 -5 516 -5 0 -105 -27
-223 -58z"/>
</g>
</svg>
